<svg xmlns="http://www.w3.org/2000/svg" viewBox="0 0 407.72 498.91"><defs><style>.cls-1{fill:none;stroke:#000;stroke-linecap:round;stroke-linejoin:round;stroke-width:15px;}</style></defs><title>Papel</title><g id="Capa_2" data-name="Capa 2"><g id="Capa_1-2" data-name="Capa 1"><path class="cls-1" d="M7.5,240.19V381.85A109.61,109.61,0,0,0,117.17,491.41h47.94A133.14,133.14,0,0,0,277.91,429l90.36-144a28.4,28.4,0,0,1,3.28-4.28l24.53-26.42c10.86-11.69-1.44-30-16.39-24.45l-39.5,14.75a17.59,17.59,0,0,0-7.24,5.08l-44.1,52.1A8.9,8.9,0,0,1,273.16,296V95.51A26.45,26.45,0,0,0,246.7,69.08h0a26.45,26.45,0,0,0-26.46,26.43V224.93a12.54,12.54,0,0,1-12.54,12.54h0a12.55,12.55,0,0,1-12.55-12.54V31.48a24,24,0,0,0-24-24h0a24,24,0,0,0-24,24V226.84a13.91,13.91,0,0,1-13.91,13.9h0a13.9,13.9,0,0,1-13.91-13.9V75.07A20.18,20.18,0,0,0,99.14,54.91h0A20.18,20.18,0,0,0,79,75.07V238.9a13.63,13.63,0,0,1-13.64,13.62h0A13.63,13.63,0,0,1,51.68,238.9V139.1A22.08,22.08,0,0,0,29.59,117h0A22.08,22.08,0,0,0,7.5,139.1Z"/></g></g></svg>