<svg xmlns="http://www.w3.org/2000/svg" viewBox="0 0 499.7 482.02"><defs><style>.cls-1{fill:none;stroke:#000;stroke-linecap:round;stroke-linejoin:round;stroke-width:15px;}</style></defs><title>piedra</title><g id="Capa_2" data-name="Capa 2"><g id="Capa_1-2" data-name="Capa 1"><path class="cls-1" d="M65.2,308.59V365.3A109.28,109.28,0,0,0,174.54,474.52H291.67a146.61,146.61,0,0,0,103.59-42.86l50-49.93a160.09,160.09,0,0,0,0-226.55L310.84,20.93a45.94,45.94,0,0,0-64.92,0h0a45.83,45.83,0,0,0,0,64.86l8.49,8.48L214.16,54.06a49.09,49.09,0,0,0-69.38,0h0a49,49,0,0,0,0,69.3l45.08,45L121.41,100A44.89,44.89,0,0,0,58,100h0a44.78,44.78,0,0,0,0,63.38L128.65,234,90.81,196.19a48.84,48.84,0,0,0-69,0h0a48.74,48.74,0,0,0,0,68.95l99.79,99.69"/></g></g></svg>