<svg xmlns="http://www.w3.org/2000/svg" viewBox="0 0 345.19 498.74"><defs><style>.cls-1{fill:none;stroke:#000;stroke-linecap:round;stroke-linejoin:round;stroke-width:15px;}</style></defs><title>tijeras</title><g id="Capa_2" data-name="Capa 2"><g id="Capa_1-2" data-name="Capa 1"><rect class="cls-1" x="275.5" y="175.51" width="62.19" height="137.02" rx="31.08"/><rect class="cls-1" x="213.31" y="134.47" width="62.19" height="168.22" rx="30.79"/><path class="cls-1" d="M213.31,197.58V42.52a35,35,0,0,0-35.05-35h0a35,35,0,0,0-35,35V208.91c0,9.73-13.4,12.39-17.13,3.4L73.38,85.15A34.34,34.34,0,0,0,30.31,66.36h0a34.28,34.28,0,0,0-21,43.12L58.45,257.3a43.47,43.47,0,0,1,2.23,13.75V285"/><path class="cls-1" d="M133.67,395.87l-16.92-29.71A24,24,0,0,1,131.51,331l29.82-7.88a66.87,66.87,0,0,0,49.26-73.31h0L65.17,283.73a58.23,58.23,0,0,0-42.6,73.42l13.1,43.73a126.82,126.82,0,0,0,121.5,90.36H206a131.64,131.64,0,0,0,131.7-131.57V281.46"/></g></g></svg>